<?xml version="1.0" encoding="UTF-8"?>
<svg id="Capa_1" data-name="Capa 1" xmlns="http://www.w3.org/2000/svg" viewBox="0 0 223.69 277.18">
  <defs>
    <style>
      .cls-1 {
        fill: #006556;
        fill-rule: evenodd;
        stroke-width: 0px;
      }
    </style>
  </defs>
  <path class="cls-1" d="m150.05,42.38s-15.28,13.89-20.84,16.67c-4.86,2.08-11.11,7.64-4.17,18.76,7.64,11.12,30.57,40.99,29.87,70.16,0,0,8.34-21.54-8.34-54.88-15.98-34.74-11.11-23.62,3.47-50.71h0Z"/>
  <path class="cls-1" d="m106.29,110.46c-13.2-6.95-22.23,2.08-22.23,2.08,0,0-4.86,2.78-2.08,11.11,3.47,11.81,0,13.89-1.39,16.67-.69,2.78-6.25,12.5-6.25,13.2.69,1.39,1.39,0,5.56-2.08,3.47-1.39,6.95,1.39,8.34,2.08.69,1.39,1.39,2.08,2.08,2.08,1.39,0,2.08.69,2.78,2.78,0,2.08,1.39,1.39,1.39,1.39.69-2.08-.69-4.86-2.08-6.95-1.39-1.39-2.08-4.17-2.08-4.17,1.39,0,2.08-2.08,1.39-2.78-1.39-.69-2.08,0-2.08,0-1.39.69-7.64,0-7.64,0,4.86-7.64,7.64-9.73,10.42-9.73,2.78-.69,6.95-.69,11.12-2.78,4.86-2.78,6.95-8.34,2.78-5.56-4.17,2.78-10.42,4.86-17.37-2.08-6.25-5.56-1.39-11.81,1.39-12.5,1.39,0,10.42-2.08,18.76,4.86,3.47,2.78,7.64,6.95,9.73,13.2,6.95,24.31-7.64,34.04-17.37,29.87-6.95-1.39-7.64-.7-14.59,3.47-6.95,3.47-10.42-3.47-10.42-3.47v-.7c-.69,0-.69.7-.69.7-.69,16.67,15.98,9.03,15.98,9.03,0,0-1.39,2.08,1.39,3.47,2.08,1.39,7.64-2.78,7.64,0-.69,2.08-7.64,3.47-7.64,3.47,9.03,3.47,28.48,3.47,34.04-19.45,4.86-24.31-8.34-40.99-20.84-47.24h0Z"/>
  <path class="cls-1" d="m215.35,36.82c-2.08-22.23-13.89-32.65-27.79-34.73,0,0-65.3-2.08-77.81-2.08S40.29,2.08,40.29,2.08c-9.03,0-27.79,6.25-30.57,29.18-3.47,24.31-2.08,49.32-2.78,72.25,0,22.92,1.39,50.02,2.08,59.05,1.39,8.34,5.56,28.48,26.4,28.48,0,0,66,2.08,76.42,2.08,11.12,0,72.25-2.08,72.25-2.08,22.23,0,29.18-15.28,30.57-29.87.69-7.64,2.08-37.51,2.08-58.35s-.69-52.1-1.39-66h0ZM37.51,14.59c11.81-5.56,21.54,2.78,26.4,4.86,4.86,2.78,40.29,34.04,40.29,34.04,0,0-35.43,2.78-50.02,2.08-11.81,0-18.76,2.78-26.4,9.03-3.47-27.79-2.08-43.77,9.73-50.02h0Zm73.64,170.89c-58.35,9.73-68.08-43.07-71.55-56.96-2.78-8.34-5.56-22.23-8.34-38.21,9.03-1.39,15.28,0,23.62,0,13.89.69,21.54,2.78,25.01,5.56,5.56,4.86,2.08,12.5,2.08,12.5,11.12-5.56,20.84-4.86,30.57-.7,31.26,13.2,43.07,70.16-1.39,77.81h0Zm87.53-106.98c-2.08,14.59-5.56,27.79-9.73,47.24-13.2,65.3-52.1,59.05-52.1,59.05,25.7-38.9,3.47-76.42-27.09-91-33.35-15.98-79.89-12.5-79.89-12.5l-4.86,4.17s-2.78-4.17-3.47-6.95c-1.39-2.08,2.78-4.86,4.17-5.56,2.08-1.39,6.25-1.39,7.64-1.39.69,0,4.86,4.86,4.86,4.86,1.39-2.08,6.25-5.56,8.34-5.56,1.39-1.39,1.39-2.08,1.39-2.08h-13.2c.69-2.08,6.95-6.95,13.2-6.95,6.25,1.39,43.07-.69,43.07-.69-4.17,4.86-16.67,13.2-16.67,13.2,11.11-1.39,43.07-18.06,59.74-33.35,16.67-16.67,38.21-34.04,54.88-25.01,11.81,5.56,15.28,22.93,9.73,62.52h0Z"/>
  <path class="cls-1" d="m.69,230.64c0-12.5,0-20.15-.69-29.87h18.06c-.69,9.72-.69,17.37-.69,29.87v14.59c0,12.5,0,21.54.69,29.87H0c.69-8.34.69-17.37.69-29.87v-14.59h0Z"/>
  <path class="cls-1" d="m45.16,225.78c-2.78,16.67-4.17,33.35-4.86,49.32h-11.11c4.86-23.62,9.03-49.32,11.81-74.33h9.73c8.34,17.37,18.76,36.82,27.09,52.1,9.73-15.98,19.45-34.73,27.79-52.1h9.73c3.47,25.01,7.64,59.74,10.42,74.33h-19.45c-.69-14.59-2.78-32.65-4.86-50.02h0c-9.03,17.37-17.37,34.04-26.4,50.02h-4.17c-8.34-15.98-16.67-32.65-25.7-49.32h0Z"/>
  <path class="cls-1" d="m166.73,215.35c-2.78-5.56-7.64-9.73-15.28-9.73s-13.2,4.86-13.2,9.73c0,16.67,38.21,12.5,38.21,36.82,0,15.28-13.2,25.01-33.35,25.01-9.03,0-15.98-2.08-20.15-4.86,2.08-4.86,2.78-8.34,4.17-13.2h2.08c1.39,5.56,6.95,11.11,17.37,11.11,9.73,0,14.59-4.86,14.59-11.11,0-16.67-37.51-11.81-37.51-36.82,0-14.59,13.2-22.92,28.48-22.92,9.03,0,15.98,1.39,20.84,5.56-2.08,2.78-2.78,5.56-4.17,10.42h-2.08Z"/>
  <path class="cls-1" d="m213.97,215.35c-2.78-5.56-7.64-9.73-15.28-9.73s-13.2,4.86-13.2,9.73c0,16.67,38.21,12.5,38.21,36.82,0,15.28-13.2,25.01-33.34,25.01-9.03,0-16.67-2.08-20.15-4.86,2.08-4.86,2.78-8.34,3.47-13.2h2.78c1.39,5.56,6.95,11.11,17.37,11.11,9.72,0,14.59-4.86,14.59-11.11,0-16.67-37.51-11.81-37.51-36.82,0-14.59,13.2-22.92,28.48-22.92,9.03,0,15.98,1.39,20.84,5.56-2.08,2.78-2.78,5.56-4.17,10.42h-2.08Z"/>
</svg>